<?xml version="1.0" encoding="utf-8"?>
<!-- Generator: Adobe Illustrator 16.0.0, SVG Export Plug-In . SVG Version: 6.00 Build 0)  -->
<!DOCTYPE svg PUBLIC "-//W3C//DTD SVG 1.1//EN" "http://www.w3.org/Graphics/SVG/1.1/DTD/svg11.dtd">
<svg version="1.1" id="Layer_1" xmlns="http://www.w3.org/2000/svg" xmlns:xlink="http://www.w3.org/1999/xlink" x="0px" y="0px"
	 width="1200px" height="1200px" viewBox="0 0 1200 1200" enable-background="new 0 0 1200 1200" xml:space="preserve">
<g>
	<path d="M600,252.625c317.508,0,575,155.557,575,347.374c0,191.817-257.488,347.375-575,347.375C282.489,947.375,25,791.816,25,600
		C25,408.182,282.489,252.625,600,252.625z"/>
	<path fill="#FFFFFF" d="M627.99,375.073l22.315-51.981l20.341,189.348c113.452,42.176,211.719-68.893,136.174-163.843
		c170.304,16.668,310.336,123.938,309.924,252.484c-0.294,92.242-72.487,178.666-227.252,225.172
		c69.485-120.99-59.354-254.058-161.469-39.314C716.78,666.043,610.639,748.377,600,883.713
		c-20.818-164.184-120.167-200.021-126.525-102.215c-116.67-194.417-225.257-94.482-159.422,50.318
		c-138.964-49.781-230.8-134.688-230.8-230.736c0-108.564,114.661-214.402,287.426-248.361
		c-73.473,100.115,13.251,196.847,142.933,159.069l17.384-190.579l21.785,53.738C577.469,357.353,602.604,360.417,627.99,375.073
		L627.99,375.073z"/>
</g>
</svg>
