<svg width="40" height="40" xmlns="http://www.w3.org/2000/svg">

 <g>
  <title>background</title>
  <rect fill="none" id="canvas_background" height="42" width="42" y="-1" x="-1"/>
 </g>
 <g>
  <title>Layer 1</title>
  <g id="svg_1">
   <path id="svg_2" d="m55.2,31.8c-4.5,0 -6.6,-5.3 -8.6,-10.4c-1.8,-4.5 -3.6,-9.1 -6.8,-9.1s-5,4.6 -6.8,9.1c-2,5.1 -4.1,10.4 -8.6,10.4s-6.6,-5.3 -8.6,-10.4c-1.8,-4.5 -3.6,-9.1 -6.8,-9.1s-5,4.6 -6.8,9.1c-2,5.1 -4.1,10.4 -8.6,10.4c-4.5,0 -6.6,-5.3 -8.6,-10.4c-1.8,-4.5 -3.6,-9.1 -6.8,-9.1c-0.6,0 -1,-0.4 -1,-1s0.4,-1 1,-1c4.5,0 6.6,5.3 8.6,10.4c1.8,4.5 3.6,9.1 6.8,9.1c3.2,0 5,-4.6 6.8,-9.1c2,-5.1 4.1,-10.4 8.6,-10.4s6.6,5.3 8.6,10.4c1.8,4.5 3.6,9.1 6.8,9.1c3.2,0 5,-4.6 6.8,-9.1c2,-5.1 4.1,-10.4 8.6,-10.4s6.6,5.3 8.6,10.4c1.8,4.5 3.6,9.1 6.8,9.1c0.6,0 1,0.4 1,1s-0.4,1 -1,1z"/>
  </g>
  <text id="svg_3" font-family="'Helvetica Neue', Helvetica, Arial-Unicode, Arial, Sans-serif" font-weight="bold" font-size="5px" fill="#000000" y="81" x="0">Created by Aurélien Lemesre</text>
  <text id="svg_4" font-family="'Helvetica Neue', Helvetica, Arial-Unicode, Arial, Sans-serif" font-weight="bold" font-size="5px" fill="#000000" y="86" x="0">from the Noun Project</text>
 </g>
</svg>