<svg width="40" height="40" xmlns="http://www.w3.org/2000/svg">

 <g>
  <title>background</title>
  <rect fill="none" id="canvas_background" height="42" width="42" y="-1" x="-1"/>
 </g>
 <g>
  <title>Layer 1</title>
  <g id="svg_1">
   <path id="svg_2" d="m32.3,47.2" stroke-miterlimit="10" stroke="#000000" fill="#000000"/>
  </g>
  <g stroke="null" id="svg_3">
   <polygon stroke="null" id="svg_4" points="86.00000762939453,35 66.0888900756836,35 66.0888900756836,10.111110210418701 49.91111755371094,10.111110210418701 49.91111755371094,35 28.755558013916016,35 28.755558013916016,10.111110210418701 12.577777862548828,10.111110210418701 12.577777862548828,35 -8.577776908874512,35 -8.577776908874512,10.111110210418701 -26,10.111110210418701 -26,7.622220993041992 -6.088888168334961,7.622220993041992 -6.088888168334961,32.51111030578613 10.088890075683594,32.51111030578613 10.088890075683594,7.622220993041992 31.24444580078125,7.622220993041992 31.24444580078125,32.51111030578613 47.42222595214844,32.51111030578613 47.42222595214844,7.622220993041992 68.5777816772461,7.622220993041992 68.5777816772461,32.51111030578613 86.00000762939453,32.51111030578613 "/>
  </g>
  <text id="svg_5" font-family="'Helvetica Neue', Helvetica, Arial-Unicode, Arial, Sans-serif" font-weight="bold" font-size="5px" fill="#000000" y="115" x="0">Created by Aurélien Lemesre</text>
  <text id="svg_6" font-family="'Helvetica Neue', Helvetica, Arial-Unicode, Arial, Sans-serif" font-weight="bold" font-size="5px" fill="#000000" y="120" x="0">from the Noun Project</text>
 </g>
</svg>